<!-- Include into html file with following line: -->
<!-- <img width="216.00" height="172.80" src="example4"> -->
<svg xmlns="http://www.w3.org/2000/svg" xmlns:xlink="http://www.w3.org/1999/xlink" width="216.00" height="172.80">
<defs>
</defs>
<path d="M 35.50,144.00 L 202.10,144.00 " style="stroke: #000000; stroke-width: 1.00; fill: none;"/>
<path d="M 36.00,144.50 L 36.00,21.10 " style="stroke: #000000; stroke-width: 1.00; fill: none;"/>
<path d="M 36.00,148.00 L 36.00,144.00 " style="stroke: #000000; stroke-width: 1.00; fill: none;"/>
<path d="M 57.20,148.00 L 57.20,144.00 " style="stroke: #000000; stroke-width: 1.00; fill: none;"/>
<path d="M 78.39,148.00 L 78.39,144.00 " style="stroke: #000000; stroke-width: 1.00; fill: none;"/>
<path d="M 99.59,148.00 L 99.59,144.00 " style="stroke: #000000; stroke-width: 1.00; fill: none;"/>
<path d="M 120.79,148.00 L 120.79,144.00 " style="stroke: #000000; stroke-width: 1.00; fill: none;"/>
<path d="M 141.98,148.00 L 141.98,144.00 " style="stroke: #000000; stroke-width: 1.00; fill: none;"/>
<path d="M 163.18,148.00 L 163.18,144.00 " style="stroke: #000000; stroke-width: 1.00; fill: none;"/>
<path d="M 184.38,148.00 L 184.38,144.00 " style="stroke: #000000; stroke-width: 1.00; fill: none;"/>
<path d="M 32.00,144.00 L 36.00,144.00 " style="stroke: #000000; stroke-width: 1.00; fill: none;"/>
<path d="M 32.00,123.19 L 36.00,123.19 " style="stroke: #000000; stroke-width: 1.00; fill: none;"/>
<path d="M 32.00,102.38 L 36.00,102.38 " style="stroke: #000000; stroke-width: 1.00; fill: none;"/>
<path d="M 32.00,81.58 L 36.00,81.58 " style="stroke: #000000; stroke-width: 1.00; fill: none;"/>
<path d="M 32.00,60.77 L 36.00,60.77 " style="stroke: #000000; stroke-width: 1.00; fill: none;"/>
<path d="M 32.00,39.96 L 36.00,39.96 " style="stroke: #000000; stroke-width: 1.00; fill: none;"/>
<text x="36.00" y="151.00" style="font-family: default; font-size: 10; text-anchor: middle; alignment-baseline: hanging; "> 0</text>
<text x="57.20" y="151.00" style="font-family: default; font-size: 10; text-anchor: middle; alignment-baseline: hanging; "> 32</text>
<text x="78.39" y="151.00" style="font-family: default; font-size: 10; text-anchor: middle; alignment-baseline: hanging; "> 64</text>
<text x="99.59" y="151.00" style="font-family: default; font-size: 10; text-anchor: middle; alignment-baseline: hanging; "> 96</text>
<text x="120.79" y="151.00" style="font-family: default; font-size: 10; text-anchor: middle; alignment-baseline: hanging; "> 128</text>
<text x="141.98" y="151.00" style="font-family: default; font-size: 10; text-anchor: middle; alignment-baseline: hanging; "> 160</text>
<text x="163.18" y="151.00" style="font-family: default; font-size: 10; text-anchor: middle; alignment-baseline: hanging; "> 192</text>
<text x="184.38" y="151.00" style="font-family: default; font-size: 10; text-anchor: middle; alignment-baseline: hanging; "> 224</text>
<text x="29.00" y="144.00" style="font-family: default; font-size: 10; text-anchor: end; alignment-baseline: middle; "> 0</text>
<text x="29.00" y="123.19" style="font-family: default; font-size: 10; text-anchor: end; alignment-baseline: middle; "> 17</text>
<text x="29.00" y="102.38" style="font-family: default; font-size: 10; text-anchor: end; alignment-baseline: middle; "> 34</text>
<text x="29.00" y="81.58" style="font-family: default; font-size: 10; text-anchor: end; alignment-baseline: middle; "> 51</text>
<text x="29.00" y="60.77" style="font-family: default; font-size: 10; text-anchor: end; alignment-baseline: middle; "> 68</text>
<text x="29.00" y="39.96" style="font-family: default; font-size: 10; text-anchor: end; alignment-baseline: middle; "> 85</text>
<text x="118.80" y="14.10" style="font-family: default; font-size: 10; text-anchor: middle; alignment-baseline: baseline; "> A Sample Graph</text>
<text x="118.80" y="164.00" style="font-family: default; font-size: 10; text-anchor: middle; alignment-baseline: hanging; "> The X-Axis</text>
<text x="14.88" y="82.80" transform="rotate(-90.00 14.88,82.80)" style="font-family: default; font-size: 10; text-anchor: middle; alignment-baseline: baseline; "> The Y-Axis</text>
<path d="M 36.66,25.76 L 37.99,25.79 L 39.31,25.79 L 40.64,25.81 L 41.96,25.86 L 43.29,25.95 L 44.61,26.10 L 45.94,26.25 L 47.26,26.41 L 48.59,26.50 L 49.91,26.59 L 51.24,26.66 L 52.56,26.70 L 53.88,26.74 L 55.21,26.77 L 56.53,26.81 L 57.86,26.85 L 59.18,26.86 L 60.51,26.90 L 61.83,26.92 L 63.16,26.95 L 64.48,26.97 L 65.81,27.00 L 67.13,27.01 L 68.46,27.03 L 69.78,27.01 L 71.11,27.56 L 72.43,27.06 L 73.76,27.96 L 75.08,27.08 L 76.41,27.08 L 77.73,27.08 L 79.06,27.23 L 80.38,27.45 L 81.71,27.18 L 83.03,27.13 L 84.36,27.14 L 85.68,27.16 L 87.00,27.17 L 88.33,27.19 L 89.65,27.21 L 90.98,27.24 L 92.30,27.22 L 93.63,27.22 L 94.95,27.22 L 96.28,27.23 L 97.60,27.24 L 98.93,27.23 L 100.25,28.87 L 101.58,31.69 L 102.90,34.10 L 104.23,36.96 L 105.55,39.26 L 106.88,41.07 L 108.20,42.80 L 109.53,44.99 L 110.85,46.40 L 112.18,47.87 L 113.50,49.74 L 114.83,52.13 L 116.15,53.90 L 117.48,54.88 L 118.80,56.66 L 120.12,58.97 L 121.45,60.58 L 122.77,61.66 L 124.10,62.81 L 125.42,64.31 L 126.75,64.95 L 128.07,65.81 L 129.40,66.48 L 130.72,67.94 L 132.05,69.13 L 133.37,70.03 L 134.70,70.90 L 136.02,71.88 L 137.35,72.73 L 138.67,73.53 L 140.00,74.01 L 141.32,74.88 L 142.65,75.35 L 143.97,75.90 L 145.30,76.57 L 146.62,77.39 L 147.95,77.89 L 149.27,78.34 L 150.60,78.99 L 151.92,79.74 L 153.24,80.03 L 154.57,80.73 L 155.89,81.17 L 157.22,81.56 L 158.54,81.78 L 159.87,82.47 L 161.19,82.85 L 162.52,83.30 L 163.84,83.79 L 165.17,84.17 L 166.49,84.51 L 167.82,84.73 L 169.14,85.08 L 170.47,85.30 L 171.79,85.66 L 173.12,85.93 L 174.44,86.34 L 175.77,86.58 L 177.09,86.88 L 178.42,87.19 L 179.74,87.35 L 181.07,87.51 L 182.39,87.78 L 183.72,88.04 L 185.04,88.23 L 186.36,88.36 L 187.69,88.61 L 189.01,88.76 L 190.34,88.96 L 191.66,89.15 L 192.99,89.40 L 194.31,89.51 L 195.64,89.59 L 196.96,89.78 L 198.29,89.92 L 199.61,90.11 L 200.94,90.19 " style="stroke: #000000; stroke-width: 1.00; fill: none;"/>
</svg>
