<!-- Include into html file with following line: -->
<!-- <img width="216.00" height="172.80" src="example1"> -->
<svg xmlns="http://www.w3.org/2000/svg" xmlns:xlink="http://www.w3.org/1999/xlink" width="216.00" height="172.80">
<defs>
</defs>
<path d="M 35.50,144.00 L 202.10,144.00 " style="stroke: #000000; stroke-width: 1.00; fill: none;"/>
<path d="M 36.00,144.50 L 36.00,21.10 " style="stroke: #000000; stroke-width: 1.00; fill: none;"/>
<path d="M 36.00,148.00 L 36.00,144.00 " style="stroke: #000000; stroke-width: 1.00; fill: none;"/>
<path d="M 56.70,148.00 L 56.70,144.00 " style="stroke: #000000; stroke-width: 1.00; fill: none;"/>
<path d="M 77.40,148.00 L 77.40,144.00 " style="stroke: #000000; stroke-width: 1.00; fill: none;"/>
<path d="M 98.10,148.00 L 98.10,144.00 " style="stroke: #000000; stroke-width: 1.00; fill: none;"/>
<path d="M 118.80,148.00 L 118.80,144.00 " style="stroke: #000000; stroke-width: 1.00; fill: none;"/>
<path d="M 139.50,148.00 L 139.50,144.00 " style="stroke: #000000; stroke-width: 1.00; fill: none;"/>
<path d="M 160.20,148.00 L 160.20,144.00 " style="stroke: #000000; stroke-width: 1.00; fill: none;"/>
<path d="M 180.90,148.00 L 180.90,144.00 " style="stroke: #000000; stroke-width: 1.00; fill: none;"/>
<path d="M 201.60,148.00 L 201.60,144.00 " style="stroke: #000000; stroke-width: 1.00; fill: none;"/>
<path d="M 32.00,144.00 L 36.00,144.00 " style="stroke: #000000; stroke-width: 1.00; fill: none;"/>
<path d="M 32.00,123.02 L 36.00,123.02 " style="stroke: #000000; stroke-width: 1.00; fill: none;"/>
<path d="M 32.00,102.03 L 36.00,102.03 " style="stroke: #000000; stroke-width: 1.00; fill: none;"/>
<path d="M 32.00,81.05 L 36.00,81.05 " style="stroke: #000000; stroke-width: 1.00; fill: none;"/>
<path d="M 32.00,60.07 L 36.00,60.07 " style="stroke: #000000; stroke-width: 1.00; fill: none;"/>
<path d="M 32.00,39.09 L 36.00,39.09 " style="stroke: #000000; stroke-width: 1.00; fill: none;"/>
<text x="36.00" y="151.00" style="font-family: default; font-size: 10; text-anchor: middle; alignment-baseline: hanging; "> 0</text>
<text x="56.70" y="151.00" style="font-family: default; font-size: 10; text-anchor: middle; alignment-baseline: hanging; "> 125</text>
<text x="77.40" y="151.00" style="font-family: default; font-size: 10; text-anchor: middle; alignment-baseline: hanging; "> 250</text>
<text x="98.10" y="151.00" style="font-family: default; font-size: 10; text-anchor: middle; alignment-baseline: hanging; "> 375</text>
<text x="118.80" y="151.00" style="font-family: default; font-size: 10; text-anchor: middle; alignment-baseline: hanging; "> 500</text>
<text x="139.50" y="151.00" style="font-family: default; font-size: 10; text-anchor: middle; alignment-baseline: hanging; "> 625</text>
<text x="160.20" y="151.00" style="font-family: default; font-size: 10; text-anchor: middle; alignment-baseline: hanging; "> 750</text>
<text x="180.90" y="151.00" style="font-family: default; font-size: 10; text-anchor: middle; alignment-baseline: hanging; "> 875</text>
<text x="201.60" y="151.00" style="font-family: default; font-size: 10; text-anchor: middle; alignment-baseline: hanging; "> 1000</text>
<text x="29.00" y="144.00" style="font-family: default; font-size: 10; text-anchor: end; alignment-baseline: middle; "> 30</text>
<text x="29.00" y="123.02" style="font-family: default; font-size: 10; text-anchor: end; alignment-baseline: middle; "> 42</text>
<text x="29.00" y="102.03" style="font-family: default; font-size: 10; text-anchor: end; alignment-baseline: middle; "> 54</text>
<text x="29.00" y="81.05" style="font-family: default; font-size: 10; text-anchor: end; alignment-baseline: middle; "> 66</text>
<text x="29.00" y="60.07" style="font-family: default; font-size: 10; text-anchor: end; alignment-baseline: middle; "> 78</text>
<text x="29.00" y="39.09" style="font-family: default; font-size: 10; text-anchor: end; alignment-baseline: middle; "> 90</text>
<text x="118.80" y="14.10" style="font-family: default; font-size: 10; text-anchor: middle; alignment-baseline: baseline; "> A Sample Graph</text>
<text x="118.80" y="164.00" style="font-family: default; font-size: 10; text-anchor: middle; alignment-baseline: hanging; "> The X-Axis</text>
<text x="14.88" y="82.80" transform="rotate(-90.00 14.88,82.80)" style="font-family: default; font-size: 10; text-anchor: middle; alignment-baseline: baseline; "> The Y-Axis</text>
<path d="M 36.17,37.23 L 37.82,38.44 L 39.48,38.53 L 41.13,38.54 L 42.79,38.54 L 44.45,38.60 L 46.10,38.86 L 47.76,38.53 L 49.41,38.56 L 51.07,38.61 L 52.73,38.33 L 54.38,41.59 L 56.04,74.77 L 57.69,86.68 L 59.35,93.45 L 61.01,98.15 L 62.66,101.98 L 64.32,104.99 L 65.97,106.83 L 67.63,107.68 L 69.29,108.31 L 70.94,109.57 L 72.60,109.03 L 74.25,108.73 L 75.91,109.45 L 77.57,108.87 L 79.22,109.78 L 80.88,109.45 L 82.53,109.55 L 84.19,109.22 L 85.85,109.94 L 87.50,109.92 L 89.16,110.03 L 90.81,109.64 L 92.47,110.04 L 94.13,109.50 L 95.78,109.90 L 97.44,109.55 L 99.09,109.50 L 100.75,109.62 L 102.41,110.10 L 104.06,109.61 L 105.72,110.41 L 107.37,109.87 L 109.03,110.36 L 110.69,110.03 L 112.34,110.18 L 114.00,110.13 L 115.65,110.03 L 117.31,110.17 L 118.97,109.75 L 120.62,109.97 L 122.28,117.51 L 123.93,111.35 L 125.59,124.47 L 127.25,112.19 L 128.90,129.07 L 130.56,111.72 L 132.21,122.70 L 133.87,110.83 L 135.53,123.59 L 137.18,116.58 L 138.84,122.86 L 140.49,110.71 L 142.15,122.86 L 143.81,110.83 L 145.46,123.02 L 147.12,116.39 L 148.77,128.44 L 150.43,117.86 L 152.09,129.15 L 153.74,118.75 L 155.40,123.28 L 157.05,111.98 L 158.71,123.89 L 160.37,118.30 L 162.02,128.26 L 163.68,123.84 L 165.33,127.95 L 166.99,111.11 L 168.65,130.08 L 170.30,111.67 L 171.96,121.32 L 173.61,115.55 L 175.27,133.40 L 176.93,111.28 L 178.58,120.78 L 180.24,110.79 L 181.89,120.18 L 183.55,137.83 L 185.21,125.54 L 186.86,112.89 L 188.52,132.58 L 190.17,115.69 L 191.83,126.25 L 193.49,111.91 L 195.14,122.35 L 196.80,115.20 L 198.45,123.47 L 200.11,111.02 " style="stroke: #000000; stroke-width: 1.00; fill: none;"/>
</svg>
