<!-- Include into html file with following line: -->
<!-- <img width="216.00" height="172.80" src="example2"> -->
<svg xmlns="http://www.w3.org/2000/svg" xmlns:xlink="http://www.w3.org/1999/xlink" width="216.00" height="172.80">
<defs>
</defs>
<path d="M 35.50,144.00 L 202.10,144.00 " style="stroke: #000000; stroke-width: 1.00; fill: none;"/>
<path d="M 36.00,144.50 L 36.00,21.10 " style="stroke: #000000; stroke-width: 1.00; fill: none;"/>
<path d="M 36.00,148.00 L 36.00,144.00 " style="stroke: #000000; stroke-width: 1.00; fill: none;"/>
<path d="M 56.70,148.00 L 56.70,144.00 " style="stroke: #000000; stroke-width: 1.00; fill: none;"/>
<path d="M 77.40,148.00 L 77.40,144.00 " style="stroke: #000000; stroke-width: 1.00; fill: none;"/>
<path d="M 98.10,148.00 L 98.10,144.00 " style="stroke: #000000; stroke-width: 1.00; fill: none;"/>
<path d="M 118.80,148.00 L 118.80,144.00 " style="stroke: #000000; stroke-width: 1.00; fill: none;"/>
<path d="M 139.50,148.00 L 139.50,144.00 " style="stroke: #000000; stroke-width: 1.00; fill: none;"/>
<path d="M 160.20,148.00 L 160.20,144.00 " style="stroke: #000000; stroke-width: 1.00; fill: none;"/>
<path d="M 180.90,148.00 L 180.90,144.00 " style="stroke: #000000; stroke-width: 1.00; fill: none;"/>
<path d="M 201.60,148.00 L 201.60,144.00 " style="stroke: #000000; stroke-width: 1.00; fill: none;"/>
<path d="M 32.00,144.00 L 36.00,144.00 " style="stroke: #000000; stroke-width: 1.00; fill: none;"/>
<path d="M 32.00,123.02 L 36.00,123.02 " style="stroke: #000000; stroke-width: 1.00; fill: none;"/>
<path d="M 32.00,102.03 L 36.00,102.03 " style="stroke: #000000; stroke-width: 1.00; fill: none;"/>
<path d="M 32.00,81.05 L 36.00,81.05 " style="stroke: #000000; stroke-width: 1.00; fill: none;"/>
<path d="M 32.00,60.07 L 36.00,60.07 " style="stroke: #000000; stroke-width: 1.00; fill: none;"/>
<path d="M 32.00,39.09 L 36.00,39.09 " style="stroke: #000000; stroke-width: 1.00; fill: none;"/>
<text x="36.00" y="151.00" style="font-family: default; font-size: 10; text-anchor: middle; alignment-baseline: hanging; "> 0</text>
<text x="56.70" y="151.00" style="font-family: default; font-size: 10; text-anchor: middle; alignment-baseline: hanging; "> 125</text>
<text x="77.40" y="151.00" style="font-family: default; font-size: 10; text-anchor: middle; alignment-baseline: hanging; "> 250</text>
<text x="98.10" y="151.00" style="font-family: default; font-size: 10; text-anchor: middle; alignment-baseline: hanging; "> 375</text>
<text x="118.80" y="151.00" style="font-family: default; font-size: 10; text-anchor: middle; alignment-baseline: hanging; "> 500</text>
<text x="139.50" y="151.00" style="font-family: default; font-size: 10; text-anchor: middle; alignment-baseline: hanging; "> 625</text>
<text x="160.20" y="151.00" style="font-family: default; font-size: 10; text-anchor: middle; alignment-baseline: hanging; "> 750</text>
<text x="180.90" y="151.00" style="font-family: default; font-size: 10; text-anchor: middle; alignment-baseline: hanging; "> 875</text>
<text x="201.60" y="151.00" style="font-family: default; font-size: 10; text-anchor: middle; alignment-baseline: hanging; "> 1000</text>
<text x="29.00" y="144.00" style="font-family: default; font-size: 10; text-anchor: end; alignment-baseline: middle; "> 30</text>
<text x="29.00" y="123.02" style="font-family: default; font-size: 10; text-anchor: end; alignment-baseline: middle; "> 42</text>
<text x="29.00" y="102.03" style="font-family: default; font-size: 10; text-anchor: end; alignment-baseline: middle; "> 54</text>
<text x="29.00" y="81.05" style="font-family: default; font-size: 10; text-anchor: end; alignment-baseline: middle; "> 66</text>
<text x="29.00" y="60.07" style="font-family: default; font-size: 10; text-anchor: end; alignment-baseline: middle; "> 78</text>
<text x="29.00" y="39.09" style="font-family: default; font-size: 10; text-anchor: end; alignment-baseline: middle; "> 90</text>
<text x="118.80" y="14.10" style="font-family: default; font-size: 10; text-anchor: middle; alignment-baseline: baseline; "> A Sample Graph</text>
<text x="118.80" y="164.00" style="font-family: default; font-size: 10; text-anchor: middle; alignment-baseline: hanging; "> The X-Axis</text>
<text x="14.88" y="82.80" transform="rotate(-90.00 14.88,82.80)" style="font-family: default; font-size: 10; text-anchor: middle; alignment-baseline: baseline; "> The Y-Axis</text>
<path d="M 36.17,28.14 L 37.82,31.81 L 39.48,35.59 L 41.13,35.34 L 42.79,35.78 L 44.45,36.01 L 46.10,36.15 L 47.76,36.29 L 49.41,36.43 L 51.07,36.57 L 52.73,46.39 L 54.38,64.35 L 56.04,71.24 L 57.69,78.94 L 59.35,88.38 L 61.01,94.43 L 62.66,100.13 L 64.32,104.74 L 65.97,108.50 L 67.63,111.86 L 69.29,114.22 L 70.94,116.30 L 72.60,118.05 L 74.25,119.69 L 75.91,120.45 L 77.57,121.50 L 79.22,122.56 L 80.88,123.23 L 82.53,124.26 L 84.19,124.75 L 85.85,125.36 L 87.50,126.01 L 89.16,126.46 L 90.81,126.81 L 92.47,127.30 L 94.13,127.51 L 95.78,127.79 L 97.44,128.05 L 99.09,128.33 L 100.75,128.56 L 102.41,128.73 L 104.06,129.22 L 105.72,129.42 L 107.37,129.66 L 109.03,129.85 L 110.69,130.05 L 112.34,130.24 L 114.00,130.40 L 115.65,130.24 L 117.31,130.31 L 118.97,130.36 L 120.62,130.68 L 122.28,131.13 L 123.93,131.64 L 125.59,131.86 L 127.25,132.00 L 128.90,132.28 L 130.56,132.63 L 132.21,132.76 L 133.87,132.69 L 135.53,132.93 L 137.18,133.02 L 138.84,133.09 L 140.49,133.12 L 142.15,133.05 L 143.81,133.28 L 145.46,133.54 L 147.12,133.63 L 148.77,133.86 L 150.43,133.93 L 152.09,134.09 L 153.74,134.09 L 155.40,134.16 L 157.05,134.16 L 158.71,134.21 L 160.37,134.30 L 162.02,134.24 L 163.68,134.38 L 165.33,134.58 L 166.99,134.80 L 168.65,134.82 L 170.30,134.85 L 171.96,135.05 L 173.61,135.34 L 175.27,135.20 L 176.93,135.10 L 178.58,135.10 L 180.24,135.10 L 181.89,135.15 L 183.55,135.73 L 185.21,135.22 L 186.86,135.29 L 188.52,135.50 L 190.17,135.50 L 191.83,135.54 L 193.49,135.62 L 195.14,135.75 L 196.80,135.71 L 198.45,135.80 L 200.11,135.78 " style="stroke: #000000; stroke-width: 1.00; fill: none;"/>
</svg>
